<?xml version="1.0" encoding="UTF-8"?>
<svg width="54px" height="36px" viewBox="0 0 54 36" version="1.1" xmlns="http://www.w3.org/2000/svg" xmlns:xlink="http://www.w3.org/1999/xlink">
    <title>LOGO</title>
    <defs>
        <polygon id="path-1" points="0 0 52 0 52 36 0 36"></polygon>
        <polygon id="path-3" points="-2 6 2 6 2 15 -2 15"></polygon>
    </defs>
    <g id="Symbols" stroke="none" stroke-width="1" fill="none" fill-rule="evenodd">
        <g id="NAV/FOND-NOIR" transform="translate(-23.000000, -16.000000)">
            <g id="HEADER-PROJET" transform="translate(24.000000, 16.000000)">
                <g id="HEADER" transform="translate(0.285714, 0.000000)">
                    <g id="LOGO" transform="translate(0.714286, 0.000000)">
                        <mask id="mask-2" fill="white">
                            <use xlink:href="#path-1"></use>
                        </mask>
                        <g id="path-1"></g>
                        <path d="M52,0 L44.9554433,0 L44.9554433,10.7845228 C44.9554433,11.697696 44.594378,12.4971873 43.8716654,13.1818226 C43.1491467,13.8666536 42.2935325,14.2088734 41.3055989,14.2088734 L34.7949765,14.2088734 C34.2709371,12.8550604 33.4589766,11.6290173 32.3532748,10.533679 C30.2514906,8.45257548 27.7430471,7.41124102 24.8260042,7.41124102 C21.8346529,7.41124102 19.3349402,8.4425965 17.3272542,10.5053075 C15.3201502,12.567627 14.3163071,15.127134 14.3163071,18.1824586 L14.3163071,25.1149049 C14.3163071,26.1084968 13.9565999,26.9678618 13.2367975,27.6931957 C12.5177712,28.4191165 11.6656493,28.7816857 10.6802379,28.7816857 C9.69599056,28.7816857 8.84367467,28.4191165 8.12387225,27.6931957 C7.40484593,26.9678618 7.04455671,26.1084968 7.04455671,25.1149049 L7.04455671,7.603385 L6.609571,7.603385 C5.92876598,10.4483686 4.04156437,13.9815096 0,16.7934256 L0,25.1149049 C0,28.0941154 1.05098911,30.6346427 3.15296734,32.7349215 C5.25494556,34.8357873 7.76435913,35.8859267 10.6802379,35.8859267 C13.6727533,35.8859267 16.172272,34.8455706 18.179376,32.7634887 C20.1870621,30.6821895 21.190129,28.1326615 21.190129,25.1149049 L21.190129,18.1824586 C21.190129,17.1512988 21.5506123,16.2827373 22.2696386,15.5756004 C22.989441,14.8694418 23.8417569,14.5156778 24.8260042,14.5156778 C25.8114156,14.5156778 26.6633435,14.8694418 27.3823698,15.5756004 C28.1021722,16.2827373 28.4618794,17.1512988 28.4618794,18.1824586 L28.4618794,35.8859267 L35.5064361,35.8859267 L35.5064361,21.5420437 L41.3055989,21.5420437 C42.2935325,21.5420437 43.1491467,21.8770239 43.8716654,22.5446363 C44.594378,23.2134227 44.9554433,24.0442205 44.9554433,25.0370298 L44.9554433,36 L52,36 L52,25.0540528 C52,22.1176931 51.0908372,19.7346769 49.2730936,17.9038302 C51.0908372,15.8824048 52,13.5183682 52,10.8113291 L52,0 Z" id="Fill-1" fill="#F11D58" fill-rule="nonzero" mask="url(#mask-2)"></path>
                        <path d="M1.4242424,6.3517542 C-0.585838259,-0.266908781 3.16844651,-1.90841391 4.82402509,-0.569064706 C6.14548886,0.49983146 7.99213465,8.94865132 0,16 C0,16 3.43449155,12.9708085 1.4242424,6.3517542 Z" id="Fill-4" fill="#F11D58" fill-rule="nonzero" mask="url(#mask-2)"></path>
                        <mask id="mask-4" fill="white">
                            <use xlink:href="#path-3"></use>
                        </mask>
                        <g id="path-3"></g>
                        <path d="M-0.79908512,10.0572461 C-3.32803263,7.2563794 -1.27653396,5.72154354 0.0218800322,6.0418695 C1.05814284,6.29764154 3.83324277,10.0150926 0.144613408,15 C0.144613408,15 1.72986238,12.8583165 -0.79908512,10.0572461 Z" id="Fill-6" fill="#F11D58" fill-rule="nonzero" mask="url(#mask-4)"></path>
                    </g>
                </g>
            </g>
        </g>
    </g>
</svg>